<mxfile host="65bd71144e" scale="1" border="20" disableSvgWarning="true">
    <diagram name="Page-1" id="58cdce13-f638-feb5-8d6f-7d28b1aa9fa0">
        <mxGraphModel dx="1111" dy="800" grid="1" gridSize="10" guides="1" tooltips="1" connect="1" arrows="1" fold="1" page="1" pageScale="1" pageWidth="1100" pageHeight="850" background="#ffffff" math="0" shadow="0">
            <root>
                <mxCell id="0"/>
                <mxCell id="1" parent="0"/>
                <mxCell id="20" value="network module&lt;br&gt;网络模块" style="shape=umlFrame;whiteSpace=wrap;html=1;width=140;height=45;fillColor=#647687;strokeColor=#314354;fontColor=#ffffff;strokeWidth=2;" parent="1" vertex="1">
                    <mxGeometry x="80" y="280" width="960" height="480" as="geometry"/>
                </mxCell>
                <mxCell id="Yj0L8lBHKAYGmaURv_ew-73" value="network module standard&lt;br&gt;网络模块标准API" style="shape=umlFrame;whiteSpace=wrap;html=1;width=140;height=45;dashed=1;strokeColor=#82b366;fillColor=#d5e8d4;strokeWidth=2;dashPattern=1 1;fontColor=#000000;" parent="1" vertex="1">
                    <mxGeometry x="105" y="660" width="915" height="80" as="geometry"/>
                </mxCell>
                <mxCell id="Yj0L8lBHKAYGmaURv_ew-77" value="&lt;font color=&quot;#000000&quot;&gt;net implementation&lt;br&gt;传输实现&lt;/font&gt;" style="shape=umlFrame;whiteSpace=wrap;html=1;width=140;height=45;dashed=1;strokeColor=#82b366;fillColor=#d5e8d4;strokeWidth=2;dashPattern=1 1;" parent="1" vertex="1">
                    <mxGeometry x="660" y="345" width="350" height="275" as="geometry"/>
                </mxCell>
                <mxCell id="19" value="application&lt;br&gt;应用程序" style="shape=umlFrame;whiteSpace=wrap;html=1;width=140;height=40;fillColor=#647687;strokeColor=#314354;fontColor=#ffffff;strokeWidth=2;" parent="1" vertex="1">
                    <mxGeometry x="80" y="40" width="960" height="200" as="geometry"/>
                </mxCell>
                <mxCell id="42" style="edgeStyle=orthogonalEdgeStyle;rounded=0;jumpStyle=arc;jumpSize=15;html=1;shadow=0;jettySize=auto;orthogonalLoop=1;strokeWidth=5;dashed=1;dashPattern=1 1;strokeColor=#6c8ebf;fillColor=#dae8fc;" parent="1" target="2" edge="1">
                    <mxGeometry relative="1" as="geometry">
                        <Array as="points">
                            <mxPoint x="960" y="87"/>
                        </Array>
                        <mxPoint x="960" y="87" as="sourcePoint"/>
                    </mxGeometry>
                </mxCell>
                <mxCell id="47" value="API" style="text;html=1;resizable=0;points=[];align=center;verticalAlign=middle;labelBackgroundColor=#ffffff;" parent="42" vertex="1" connectable="0">
                    <mxGeometry x="0.4064" y="-1" relative="1" as="geometry">
                        <mxPoint as="offset"/>
                    </mxGeometry>
                </mxCell>
                <mxCell id="2" value="NetRemoteStandard" style="rounded=1;whiteSpace=wrap;html=1;arcSize=40;fontColor=#000000;fillColor=#ffffc0;strokeColor=#ff0000;" parent="1" vertex="1">
                    <mxGeometry x="867.5" y="680" width="120" height="40" as="geometry"/>
                </mxCell>
                <mxCell id="71" style="edgeStyle=orthogonalEdgeStyle;rounded=0;html=1;jettySize=auto;orthogonalLoop=1;strokeColor=#b85450;strokeWidth=5;fillColor=#f8cecc;exitX=0.5;exitY=1;exitDx=0;exitDy=0;entryX=0.429;entryY=0.008;entryDx=0;entryDy=0;entryPerimeter=0;" parent="1" source="LpcbZSzhfcztyRUosMWK-76" target="Yj0L8lBHKAYGmaURv_ew-77" edge="1">
                    <mxGeometry relative="1" as="geometry">
                        <mxPoint x="810" y="240" as="sourcePoint"/>
                        <mxPoint x="810" y="330" as="targetPoint"/>
                        <Array as="points"/>
                    </mxGeometry>
                </mxCell>
                <mxCell id="72" value="具体实现" style="text;html=1;resizable=0;points=[];align=center;verticalAlign=middle;labelBackgroundColor=#ffffff;" parent="71" vertex="1" connectable="0">
                    <mxGeometry x="-0.3524" y="-2" relative="1" as="geometry">
                        <mxPoint x="2" y="33" as="offset"/>
                    </mxGeometry>
                </mxCell>
                <mxCell id="Yj0L8lBHKAYGmaURv_ew-82" style="edgeStyle=orthogonalEdgeStyle;rounded=0;html=1;exitX=0.75;exitY=1;exitDx=0;exitDy=0;entryX=0.5;entryY=0;entryDx=0;entryDy=0;jettySize=auto;orthogonalLoop=1;" parent="1" source="4" target="2" edge="1">
                    <mxGeometry relative="1" as="geometry"/>
                </mxCell>
                <mxCell id="yL-3vqy_kVXtS4JrEuSm-72" style="edgeStyle=orthogonalEdgeStyle;rounded=0;orthogonalLoop=1;jettySize=auto;html=1;entryX=0.75;entryY=0;entryDx=0;entryDy=0;exitX=0.25;exitY=1;exitDx=0;exitDy=0;" parent="1" source="4" target="7" edge="1">
                    <mxGeometry relative="1" as="geometry">
                        <Array as="points">
                            <mxPoint x="788" y="580"/>
                            <mxPoint x="650" y="580"/>
                        </Array>
                    </mxGeometry>
                </mxCell>
                <mxCell id="4" value="Megumin.Remote" style="rounded=1;whiteSpace=wrap;html=1;arcSize=40;fontColor=#000000;fillColor=#ffffc0;strokeColor=#ff0000;" parent="1" vertex="1">
                    <mxGeometry x="757.5" y="435" width="120" height="40" as="geometry"/>
                </mxCell>
                <mxCell id="41" style="edgeStyle=orthogonalEdgeStyle;rounded=0;jumpStyle=arc;jumpSize=15;html=1;shadow=0;jettySize=auto;orthogonalLoop=1;strokeWidth=5;fillColor=#dae8fc;strokeColor=#6c8ebf;dashed=1;dashPattern=1 1;exitX=0.569;exitY=1.04;exitDx=0;exitDy=0;exitPerimeter=0;entryX=0.5;entryY=0;entryDx=0;entryDy=0;" parent="1" source="61" target="7" edge="1">
                    <mxGeometry relative="1" as="geometry">
                        <Array as="points">
                            <mxPoint x="664" y="300"/>
                            <mxPoint x="620" y="300"/>
                        </Array>
                    </mxGeometry>
                </mxCell>
                <mxCell id="46" value="API" style="text;html=1;resizable=0;points=[];align=center;verticalAlign=middle;labelBackgroundColor=#ffffff;" parent="41" vertex="1" connectable="0">
                    <mxGeometry x="0.411" y="-3" relative="1" as="geometry">
                        <mxPoint as="offset"/>
                    </mxGeometry>
                </mxCell>
                <mxCell id="7" value="MessageStandard" style="rounded=1;whiteSpace=wrap;html=1;arcSize=40;fontColor=#000000;fillColor=#ffffc0;strokeColor=#ff0000;" parent="1" vertex="1">
                    <mxGeometry x="560" y="680" width="120" height="40" as="geometry"/>
                </mxCell>
                <mxCell id="Yj0L8lBHKAYGmaURv_ew-83" style="edgeStyle=orthogonalEdgeStyle;rounded=0;html=1;exitX=0.25;exitY=1;exitDx=0;exitDy=0;entryX=0.25;entryY=0;entryDx=0;entryDy=0;jettySize=auto;orthogonalLoop=1;" parent="1" source="11" target="26" edge="1">
                    <mxGeometry relative="1" as="geometry"/>
                </mxCell>
                <mxCell id="Yj0L8lBHKAYGmaURv_ew-86" style="edgeStyle=orthogonalEdgeStyle;rounded=0;html=1;exitX=0.75;exitY=1;exitDx=0;exitDy=0;entryX=0.25;entryY=0;entryDx=0;entryDy=0;jettySize=auto;orthogonalLoop=1;" parent="1" source="11" target="7" edge="1">
                    <mxGeometry relative="1" as="geometry">
                        <Array as="points">
                            <mxPoint x="230" y="640"/>
                            <mxPoint x="590" y="640"/>
                        </Array>
                    </mxGeometry>
                </mxCell>
                <mxCell id="11" value="MessagePackLUT" style="rounded=1;whiteSpace=wrap;html=1;arcSize=40;fontColor=#000000;fillColor=#ffffc0;strokeColor=#ff0000;" parent="1" vertex="1">
                    <mxGeometry x="140" y="435" width="120" height="40" as="geometry"/>
                </mxCell>
                <mxCell id="Yj0L8lBHKAYGmaURv_ew-85" style="edgeStyle=orthogonalEdgeStyle;rounded=0;html=1;exitX=0.25;exitY=1;exitDx=0;exitDy=0;entryX=0.25;entryY=0;entryDx=0;entryDy=0;jettySize=auto;orthogonalLoop=1;" parent="1" source="12" target="30" edge="1">
                    <mxGeometry relative="1" as="geometry"/>
                </mxCell>
                <mxCell id="Yj0L8lBHKAYGmaURv_ew-88" style="edgeStyle=orthogonalEdgeStyle;rounded=0;html=1;exitX=0.75;exitY=1;exitDx=0;exitDy=0;jettySize=auto;orthogonalLoop=1;entryX=0.25;entryY=0;entryDx=0;entryDy=0;" parent="1" source="12" target="7" edge="1">
                    <mxGeometry relative="1" as="geometry">
                        <mxPoint x="540" y="680" as="targetPoint"/>
                        <Array as="points">
                            <mxPoint x="520" y="640"/>
                            <mxPoint x="590" y="640"/>
                        </Array>
                    </mxGeometry>
                </mxCell>
                <mxCell id="12" value="Protobuf-netLUT" style="rounded=1;whiteSpace=wrap;html=1;arcSize=40;fontColor=#000000;fillColor=#ffffc0;strokeColor=#ff0000;" parent="1" vertex="1">
                    <mxGeometry x="430" y="435" width="120" height="40" as="geometry"/>
                </mxCell>
                <mxCell id="Yj0L8lBHKAYGmaURv_ew-84" style="edgeStyle=orthogonalEdgeStyle;rounded=0;html=1;exitX=0.25;exitY=1;exitDx=0;exitDy=0;entryX=0.25;entryY=0;entryDx=0;entryDy=0;jettySize=auto;orthogonalLoop=1;" parent="1" source="13" target="28" edge="1">
                    <mxGeometry relative="1" as="geometry"/>
                </mxCell>
                <mxCell id="Yj0L8lBHKAYGmaURv_ew-87" style="edgeStyle=orthogonalEdgeStyle;rounded=0;html=1;exitX=0.75;exitY=1;exitDx=0;exitDy=0;jettySize=auto;orthogonalLoop=1;entryX=0.25;entryY=0;entryDx=0;entryDy=0;" parent="1" source="13" target="7" edge="1">
                    <mxGeometry relative="1" as="geometry">
                        <mxPoint x="540" y="680" as="targetPoint"/>
                        <Array as="points">
                            <mxPoint x="374" y="640"/>
                            <mxPoint x="590" y="640"/>
                        </Array>
                    </mxGeometry>
                </mxCell>
                <mxCell id="yL-3vqy_kVXtS4JrEuSm-73" value="注入" style="edgeLabel;html=1;align=center;verticalAlign=middle;resizable=0;points=[];fontSize=16;fontColor=#FF0000;" parent="Yj0L8lBHKAYGmaURv_ew-87" vertex="1" connectable="0">
                    <mxGeometry x="0.6342" relative="1" as="geometry">
                        <mxPoint x="-3" as="offset"/>
                    </mxGeometry>
                </mxCell>
                <mxCell id="13" value="ProtobufLUT" style="rounded=1;whiteSpace=wrap;html=1;arcSize=40;fontColor=#000000;fillColor=#ffffc0;strokeColor=#ff0000;" parent="1" vertex="1">
                    <mxGeometry x="284" y="435" width="120" height="40" as="geometry"/>
                </mxCell>
                <mxCell id="37" style="edgeStyle=orthogonalEdgeStyle;rounded=0;html=1;jettySize=auto;orthogonalLoop=1;strokeWidth=5;fillColor=#f8cecc;strokeColor=#b85450;exitX=0.5;exitY=1;exitDx=0;exitDy=0;entryX=0.846;entryY=-0.001;entryDx=0;entryDy=0;entryPerimeter=0;" parent="1" source="LpcbZSzhfcztyRUosMWK-80" target="25" edge="1">
                    <mxGeometry relative="1" as="geometry">
                        <Array as="points">
                            <mxPoint x="490" y="320"/>
                            <mxPoint x="490" y="320"/>
                        </Array>
                        <mxPoint x="343" y="215" as="sourcePoint"/>
                        <mxPoint x="540" y="320" as="targetPoint"/>
                    </mxGeometry>
                </mxCell>
                <mxCell id="45" value="具体实现" style="text;html=1;resizable=0;points=[];align=center;verticalAlign=middle;labelBackgroundColor=#ffffff;" parent="37" vertex="1" connectable="0">
                    <mxGeometry x="-0.2977" y="-2" relative="1" as="geometry">
                        <mxPoint x="2" y="30.5" as="offset"/>
                    </mxGeometry>
                </mxCell>
                <mxCell id="25" value="&lt;font color=&quot;#000000&quot;&gt;seiralize lib&lt;br&gt;序列化库&lt;/font&gt;" style="shape=umlFrame;whiteSpace=wrap;html=1;width=140;height=45;dashed=1;fillColor=#d5e8d4;strokeColor=#82b366;strokeWidth=2;dashPattern=1 1;" parent="1" vertex="1">
                    <mxGeometry x="105" y="345" width="455" height="275" as="geometry"/>
                </mxCell>
                <mxCell id="26" value="MessagePack" style="rounded=1;whiteSpace=wrap;html=1;arcSize=40;fontColor=#000000;fillColor=#ffffc0;strokeColor=#ff0000;" parent="1" vertex="1">
                    <mxGeometry x="140" y="550" width="120" height="40" as="geometry"/>
                </mxCell>
                <mxCell id="32" value="select a seiralizer lib&lt;br&gt;选择一个序列化库&lt;br&gt;" style="html=1;" parent="1" vertex="1">
                    <mxGeometry x="270" y="345" width="180" height="70" as="geometry"/>
                </mxCell>
                <mxCell id="56" style="edgeStyle=orthogonalEdgeStyle;rounded=0;jumpStyle=arc;jumpSize=15;html=1;shadow=0;jettySize=auto;orthogonalLoop=1;strokeWidth=2;fillColor=#d5e8d4;strokeColor=#82b366;dashed=1;entryX=0;entryY=0.25;entryDx=0;entryDy=0;" parent="1" source="53" target="54" edge="1">
                    <mxGeometry relative="1" as="geometry">
                        <Array as="points">
                            <mxPoint x="580" y="73"/>
                        </Array>
                        <mxPoint x="880" y="72" as="targetPoint"/>
                    </mxGeometry>
                </mxCell>
                <mxCell id="53" value="&lt;p style=&quot;margin: 0px ; margin-top: 4px ; text-align: center ; text-decoration: underline&quot;&gt;&lt;b&gt;Object:Person&lt;/b&gt;&lt;/p&gt;&lt;hr&gt;&lt;p style=&quot;margin: 0px ; margin-left: 8px&quot;&gt;field1 = name&lt;br&gt;field2 = age&lt;br&gt;&lt;/p&gt;" style="verticalAlign=top;align=left;overflow=fill;fontSize=12;fontFamily=Helvetica;html=1;" parent="1" vertex="1">
                    <mxGeometry x="230" y="61" width="160" height="70" as="geometry"/>
                </mxCell>
                <mxCell id="54" value="Remote.Send&lt;br&gt;" style="html=1;" parent="1" vertex="1">
                    <mxGeometry x="910" y="60" width="110" height="50" as="geometry"/>
                </mxCell>
                <mxCell id="61" value="MessageLut.Seiralize" style="html=1;" parent="1" vertex="1">
                    <mxGeometry x="590" y="140" width="130" height="50" as="geometry"/>
                </mxCell>
                <mxCell id="LpcbZSzhfcztyRUosMWK-77" value="" style="group" parent="1" vertex="1" connectable="0">
                    <mxGeometry x="737.5" y="101.5" width="145" height="127" as="geometry"/>
                </mxCell>
                <mxCell id="LpcbZSzhfcztyRUosMWK-76" value="" style="rounded=0;whiteSpace=wrap;html=1;dashed=1;" parent="LpcbZSzhfcztyRUosMWK-77" vertex="1">
                    <mxGeometry width="145" height="127" as="geometry"/>
                </mxCell>
                <mxCell id="59" value="TCPRemote.Send&lt;br&gt;" style="html=1;" parent="LpcbZSzhfcztyRUosMWK-77" vertex="1">
                    <mxGeometry x="20" y="17" width="110" height="25" as="geometry"/>
                </mxCell>
                <mxCell id="LpcbZSzhfcztyRUosMWK-73" value="UDPRemote.Send&lt;br&gt;" style="html=1;" parent="LpcbZSzhfcztyRUosMWK-77" vertex="1">
                    <mxGeometry x="20" y="52" width="110" height="25" as="geometry"/>
                </mxCell>
                <mxCell id="LpcbZSzhfcztyRUosMWK-74" value="KCPRemote.Send&lt;br&gt;" style="html=1;" parent="LpcbZSzhfcztyRUosMWK-77" vertex="1">
                    <mxGeometry x="20" y="87" width="110" height="25" as="geometry"/>
                </mxCell>
                <mxCell id="LpcbZSzhfcztyRUosMWK-79" value="" style="group" parent="1" vertex="1" connectable="0">
                    <mxGeometry x="417.5" y="101.5" width="145" height="127" as="geometry"/>
                </mxCell>
                <mxCell id="LpcbZSzhfcztyRUosMWK-80" value="" style="rounded=0;whiteSpace=wrap;html=1;dashed=1;" parent="LpcbZSzhfcztyRUosMWK-79" vertex="1">
                    <mxGeometry width="145" height="127" as="geometry"/>
                </mxCell>
                <mxCell id="LpcbZSzhfcztyRUosMWK-81" value="MessagePack" style="html=1;" parent="LpcbZSzhfcztyRUosMWK-79" vertex="1">
                    <mxGeometry x="20" y="17" width="110" height="25" as="geometry"/>
                </mxCell>
                <mxCell id="LpcbZSzhfcztyRUosMWK-82" value="Protobuf&lt;br&gt;" style="html=1;" parent="LpcbZSzhfcztyRUosMWK-79" vertex="1">
                    <mxGeometry x="20" y="52" width="110" height="25" as="geometry"/>
                </mxCell>
                <mxCell id="LpcbZSzhfcztyRUosMWK-83" value="Protobuf-net&lt;br&gt;" style="html=1;" parent="LpcbZSzhfcztyRUosMWK-79" vertex="1">
                    <mxGeometry x="20" y="87" width="110" height="25" as="geometry"/>
                </mxCell>
                <mxCell id="LpcbZSzhfcztyRUosMWK-84" style="edgeStyle=orthogonalEdgeStyle;rounded=0;html=1;exitX=0;exitY=0.5;exitDx=0;exitDy=0;endArrow=classic;jettySize=auto;orthogonalLoop=1;strokeColor=#82b366;shadow=0;strokeWidth=2;fillColor=#d5e8d4;" parent="1" source="61" target="LpcbZSzhfcztyRUosMWK-81" edge="1">
                    <mxGeometry relative="1" as="geometry"/>
                </mxCell>
                <mxCell id="LpcbZSzhfcztyRUosMWK-86" style="edgeStyle=orthogonalEdgeStyle;rounded=0;html=1;exitX=0;exitY=0.5;exitDx=0;exitDy=0;endArrow=classic;jettySize=auto;orthogonalLoop=1;strokeColor=#82b366;shadow=0;strokeWidth=2;fillColor=#d5e8d4;entryX=0.93;entryY=0.048;entryDx=0;entryDy=0;entryPerimeter=0;" parent="1" source="LpcbZSzhfcztyRUosMWK-81" target="11" edge="1">
                    <mxGeometry relative="1" as="geometry">
                        <mxPoint x="280" y="430" as="targetPoint"/>
                        <Array as="points">
                            <mxPoint x="410" y="131"/>
                            <mxPoint x="410" y="189"/>
                            <mxPoint x="260" y="189"/>
                            <mxPoint x="260" y="437"/>
                        </Array>
                    </mxGeometry>
                </mxCell>
                <mxCell id="LpcbZSzhfcztyRUosMWK-78" style="edgeStyle=orthogonalEdgeStyle;rounded=0;html=1;exitX=0.25;exitY=1;exitDx=0;exitDy=0;endArrow=classic;jettySize=auto;orthogonalLoop=1;strokeColor=#82b366;shadow=0;strokeWidth=2;fillColor=#d5e8d4;entryX=1;entryY=0.25;entryDx=0;entryDy=0;" parent="1" source="54" target="59" edge="1">
                    <mxGeometry relative="1" as="geometry">
                        <Array as="points">
                            <mxPoint x="937" y="125"/>
                            <mxPoint x="889" y="125"/>
                        </Array>
                    </mxGeometry>
                </mxCell>
                <mxCell id="vPkLRx03v5zsA_5CtVBh-73" style="edgeStyle=orthogonalEdgeStyle;rounded=0;html=1;exitX=0;exitY=0.25;exitDx=0;exitDy=0;entryX=0.5;entryY=0;entryDx=0;entryDy=0;jettySize=auto;orthogonalLoop=1;shadow=0;strokeColor=#82b366;strokeWidth=2;fillColor=#d5e8d4;" parent="1" source="59" target="61" edge="1">
                    <mxGeometry relative="1" as="geometry">
                        <Array as="points">
                            <mxPoint x="730" y="125"/>
                            <mxPoint x="730" y="100"/>
                            <mxPoint x="655" y="100"/>
                        </Array>
                    </mxGeometry>
                </mxCell>
                <mxCell id="58" style="edgeStyle=orthogonalEdgeStyle;rounded=0;jumpStyle=arc;jumpSize=15;html=1;entryX=0;entryY=0.75;shadow=0;jettySize=auto;orthogonalLoop=1;strokeWidth=2;fillColor=#1ba1e2;strokeColor=#006EAF;exitX=0.75;exitY=0;exitDx=0;exitDy=0;entryDx=0;entryDy=0;" parent="1" source="11" target="59" edge="1">
                    <mxGeometry relative="1" as="geometry">
                        <Array as="points">
                            <mxPoint x="230" y="269"/>
                            <mxPoint x="730" y="269"/>
                            <mxPoint x="730" y="137"/>
                        </Array>
                    </mxGeometry>
                </mxCell>
                <mxCell id="vPkLRx03v5zsA_5CtVBh-74" value="Span&amp;lt;byte&amp;gt;" style="text;html=1;resizable=0;points=[];align=center;verticalAlign=middle;labelBackgroundColor=#ffffff;direction=south;rotation=0;fontColor=#004C99;" parent="58" vertex="1" connectable="0">
                    <mxGeometry x="0.1054" y="2" relative="1" as="geometry">
                        <mxPoint x="-315.5" y="142" as="offset"/>
                    </mxGeometry>
                </mxCell>
                <mxCell id="vPkLRx03v5zsA_5CtVBh-75" style="edgeStyle=orthogonalEdgeStyle;rounded=0;html=1;exitX=1;exitY=0.75;exitDx=0;exitDy=0;jettySize=auto;orthogonalLoop=1;fontColor=#000000;shadow=0;strokeColor=#006EAF;strokeWidth=2;fillColor=#1ba1e2;" parent="1" source="59" edge="1">
                    <mxGeometry relative="1" as="geometry">
                        <mxPoint x="1090.388349514563" y="137.23300970873782" as="targetPoint"/>
                    </mxGeometry>
                </mxCell>
                <mxCell id="vPkLRx03v5zsA_5CtVBh-76" value="Send" style="text;html=1;resizable=0;points=[];align=center;verticalAlign=middle;labelBackgroundColor=#ffffff;fontColor=#004C99;" parent="vPkLRx03v5zsA_5CtVBh-75" vertex="1" connectable="0">
                    <mxGeometry x="0.7019" y="-1" relative="1" as="geometry">
                        <mxPoint x="3" y="-3.5" as="offset"/>
                    </mxGeometry>
                </mxCell>
                <mxCell id="30" value="Protobuf-net" style="rounded=1;whiteSpace=wrap;html=1;arcSize=40;fontColor=#000000;fillColor=#ffffc0;strokeColor=#ff0000;" parent="1" vertex="1">
                    <mxGeometry x="430" y="550" width="120" height="40" as="geometry"/>
                </mxCell>
                <mxCell id="28" value="Google.Protobuf" style="rounded=1;whiteSpace=wrap;html=1;arcSize=40;fontColor=#000000;fillColor=#ffffc0;strokeColor=#ff0000;" parent="1" vertex="1">
                    <mxGeometry x="284" y="550" width="120" height="40" as="geometry"/>
                </mxCell>
                <mxCell id="74" value="&lt;font color=&quot;#196eff&quot;&gt;可以针对不同游戏类型实现不同的网络库&lt;/font&gt;" style="text;html=1;strokeColor=none;fillColor=none;align=center;verticalAlign=middle;whiteSpace=wrap;rounded=0;" vertex="1" parent="1">
                    <mxGeometry x="710" y="405" width="262" height="10" as="geometry"/>
                </mxCell>
            </root>
        </mxGraphModel>
    </diagram>
</mxfile>